<?xml version="1.0" encoding="UTF-8"?>
<svg version="1.1" xmlns="http://www.w3.org/2000/svg" width="499" height="495">
<path d="M0 0 C164.67 0 329.34 0 499 0 C499 163.35 499 326.7 499 495 C334.33 495 169.66 495 0 495 C0 331.65 0 168.3 0 0 Z " fill="#EEEEEE" transform="translate(0,0)"/>
<path d="M0 0 C0.82814713 -0.0065712 1.65629425 -0.0131424 2.50953674 -0.01991272 C5.24618628 -0.03959994 7.98278109 -0.05129742 10.71948242 -0.0612793 C12.12407495 -0.06739259 12.12407495 -0.06739259 13.55704308 -0.07362938 C18.51231031 -0.09446948 23.46755002 -0.10878074 28.42285156 -0.11816406 C33.53401643 -0.12923093 38.64474626 -0.16363997 43.75575733 -0.20333576 C47.69265032 -0.22950756 51.62943964 -0.23785635 55.56641197 -0.24144554 C57.45022206 -0.24630914 59.33402759 -0.25791668 61.21775246 -0.27648354 C63.85775701 -0.30088968 66.49663539 -0.29990756 69.13671875 -0.29296875 C69.90943115 -0.30577881 70.68214355 -0.31858887 71.47827148 -0.33178711 C76.98698669 -0.27920477 80.30066779 0.87590837 84.76245117 4.17700195 C87.06786009 7.9578696 87.02009881 11.54413996 87.03710938 15.9074707 C87.04222031 16.56341217 87.04733124 17.21935364 87.05259705 17.89517212 C87.06643576 20.05170959 87.06554094 22.2079255 87.06323242 24.36450195 C87.06712196 25.86995562 87.07145716 27.37540821 87.07621765 28.88085938 C87.08366713 32.03136763 87.08339745 35.18176378 87.078125 38.33227539 C87.07232606 42.36406471 87.08927739 46.39539529 87.11246967 50.42710876 C87.12721862 53.53441029 87.12807726 56.64160155 87.12495995 59.74893188 C87.12547238 61.23524892 87.13069553 62.72157226 87.14077187 64.20785522 C87.15314474 66.28771613 87.14634109 68.36668597 87.13476562 70.4465332 C87.13539505 71.62836182 87.13602448 72.81019043 87.13667297 74.02783203 C86.70992586 77.61901558 86.04733979 79.37989386 83.76245117 82.17700195 C79.07412327 85.33103025 74.71755537 85.62237967 69.22192383 85.61279297 C67.96704414 85.62790672 67.96704414 85.62790672 66.68681335 85.64332581 C63.93324257 85.67172078 61.18022156 85.67767792 58.42651367 85.6809082 C56.50369037 85.69055481 54.58086926 85.7006477 52.65805054 85.71116638 C48.63160092 85.7291063 44.60534417 85.73468957 40.57885742 85.73291016 C35.43166067 85.73260534 30.28570596 85.77356759 25.13880348 85.82522678 C21.16836928 85.85866176 17.19823313 85.86466557 13.22767258 85.86308098 C11.33071993 85.86660985 9.43375864 85.87981643 7.53694534 85.90307808 C-10.36310732 86.10205945 -10.36310732 86.10205945 -16.07901001 80.6605072 C-18.61678354 77.41089632 -18.37536694 74.84529449 -18.39868164 70.78710938 C-18.40364655 70.13160599 -18.40861145 69.4761026 -18.41372681 68.80073547 C-18.42835427 66.62796993 -18.43515197 64.45527744 -18.44067383 62.2824707 C-18.44642559 60.77273049 -18.45218332 59.26299029 -18.45794678 57.75325012 C-18.46845896 54.58484557 -18.47429994 51.41646641 -18.4777832 48.24804688 C-18.48326304 44.19266112 -18.50727892 40.13761196 -18.53575516 36.08233166 C-18.55440269 32.96217376 -18.55958829 29.8420965 -18.56111908 26.72188759 C-18.56414227 25.22718786 -18.57215961 23.73248945 -18.58530426 22.23784447 C-18.60240681 20.14333084 -18.60047463 18.04963372 -18.59399414 15.95507812 C-18.59763977 14.7642009 -18.6012854 13.57332367 -18.6050415 12.34635925 C-18.06574604 7.69532772 -15.89618319 4.10390944 -12.23754883 1.17700195 C-8.29188328 -0.23658481 -4.13566893 0.01427918 0 0 Z " fill="#B4B4B4" transform="translate(228.237548828125,188.822998046875)"/>
<path d="M0 0 C2.74043441 -0.29691268 5.25533799 -0.39903858 7.99804688 -0.37231445 C8.82417984 -0.37596512 9.65031281 -0.37961578 10.5014801 -0.38337708 C13.24077717 -0.39150372 15.9794866 -0.37785514 18.71875 -0.36328125 C20.61682129 -0.3627629 22.51489311 -0.36327964 24.41296387 -0.36479187 C28.39436844 -0.36470205 32.37557093 -0.35425313 36.35693359 -0.33618164 C41.46853879 -0.31349414 46.57984849 -0.31294934 51.69149017 -0.31969929 C55.61190431 -0.32303571 59.53225068 -0.31641536 63.45265198 -0.30657005 C65.33777004 -0.30271211 67.22289563 -0.30157229 69.10801697 -0.3031559 C71.73947595 -0.30352545 74.37055155 -0.29093756 77.00195312 -0.2746582 C78.17867332 -0.27837433 78.17867332 -0.27837433 79.37916565 -0.28216553 C84.77125913 -0.22874087 84.77125913 -0.22874087 87 2 C87.24050903 3.87295532 87.24050903 3.87295532 87.22705078 6.17431641 C87.22689972 7.03505768 87.22674866 7.89579895 87.22659302 8.78262329 C87.21627045 9.71287323 87.20594788 10.64312317 87.1953125 11.6015625 C87.1924826 12.55316254 87.18965271 13.50476257 87.18673706 14.48519897 C87.17551989 17.53192592 87.15041263 20.57836154 87.125 23.625 C87.11497218 25.68749576 87.10584599 27.74999612 87.09765625 29.8125 C87.07557554 34.87511267 87.0410353 39.9375069 87 45 C85 43.625 85 43.625 83 42 C83 41.34 83 40.68 83 40 C82.34 40 81.68 40 81 40 C79.70958086 38.55235738 78.49232866 37.03910851 77.3125 35.5 C76.59835937 34.59378906 75.88421875 33.68757813 75.1484375 32.75390625 C73.81110816 31.03969319 72.48152912 29.31936908 71.1640625 27.58984375 C68.32802058 24.05441593 66.76986674 22.25219773 62.375 20.8125 C57.4731048 21.08482751 55.00877376 22.89967656 51.71875 26.48828125 C50.9865625 27.42027344 50.254375 28.35226563 49.5 29.3125 C48.72140625 30.2921875 47.9428125 31.271875 47.140625 32.28125 C46.43421875 33.1784375 45.7278125 34.075625 45 35 C44.08869592 36.10859672 43.17330778 37.21388062 42.25 38.3125 C41.03838439 39.75970753 39.83213208 41.2119149 38.66015625 42.69140625 C37.48252686 44.16258964 36.24568598 45.58597808 35 47 C34.34 47 33.68 47 33 47 C31.75609065 45.49421499 30.51354412 43.98722364 29.28515625 42.46875 C26.8851621 39.72589954 24.74906203 39.15321723 21.25 38.4375 C16.23835645 39.30489985 13.52791301 42.50136428 10 46 C8.6696875 47.2684375 8.6696875 47.2684375 7.3125 48.5625 C5.53554104 50.43551079 3.92531731 52.30585521 2.3125 54.3125 C1.549375 55.199375 0.78625 56.08625 0 57 C-0.66 57 -1.32 57 -2 57 C-2.05062418 49.36453069 -2.08570152 41.7291045 -2.10986328 34.09350586 C-2.11993368 31.49485659 -2.13359071 28.89621869 -2.15087891 26.29760742 C-2.17508139 22.56686603 -2.18647266 18.83627419 -2.1953125 15.10546875 C-2.20563507 13.93976852 -2.21595764 12.7740683 -2.22659302 11.57304382 C-2.22674408 10.49214981 -2.22689514 9.4112558 -2.22705078 8.29760742 C-2.231492 7.34496506 -2.23593323 6.39232269 -2.24050903 5.41081238 C-2 3 -2 3 0 0 Z " fill="#EEEEEE" transform="translate(220,197)"/>
<path d="M0 0 C3.2382343 1.07941143 3.87712307 1.72377646 6 4.25 C6.59941406 4.95898438 7.19882812 5.66796875 7.81640625 6.3984375 C8.53699219 7.25695312 9.25757813 8.11546875 10 9 C10.96613286 10.11832494 11.93367182 11.23543613 12.90234375 12.3515625 C13.9143845 13.52576422 14.92610312 14.70024365 15.9375 15.875 C16.43443359 16.44637695 16.93136719 17.01775391 17.44335938 17.60644531 C21 21.77244045 21 21.77244045 21 24 C21.66 24 22.32 24 23 24 C26.75883805 28.31160835 27.43225883 31.38318053 27.3359375 37.046875 C27 39 27 39 25 41 C22.28916342 41.18802953 19.68132726 41.25180173 16.97021484 41.22705078 C16.14086929 41.22734283 15.31152374 41.22763489 14.45704651 41.22793579 C11.70823808 41.22653939 8.95969873 41.21096368 6.2109375 41.1953125 C4.30807646 41.19158347 2.4052135 41.18873598 0.50234985 41.18673706 C-4.51185383 41.17909192 -9.52594209 41.15943589 -14.5401001 41.1373291 C-19.65432168 41.11688962 -24.76856187 41.10773941 -29.8828125 41.09765625 C-39.92192578 41.07619081 -49.9609533 41.04204427 -60 41 C-59.62890625 39.078125 -59.62890625 39.078125 -59 37 C-56.9375 35.75 -56.9375 35.75 -55 35 C-55 34.34 -55 33.68 -55 33 C-54.34 33 -53.68 33 -53 33 C-52.79375 32.443125 -52.5875 31.88625 -52.375 31.3125 C-50.81840418 28.69458885 -48.89372699 27.16516704 -46.515625 25.30078125 C-44.7639976 23.88616824 -44.7639976 23.88616824 -42.875 21.25 C-41 19 -41 19 -39.14453125 18.12109375 C-37 18 -37 18 -34.89453125 19.58203125 C-34.20746094 20.31808594 -33.52039063 21.05414063 -32.8125 21.8125 C-32.11769531 22.54082031 -31.42289063 23.26914063 -30.70703125 24.01953125 C-29 26 -29 26 -28 28 C-25.65559833 28.37656654 -25.65559833 28.37656654 -23 28 C-20.95210209 26.04820426 -20.95210209 26.04820426 -19.3125 23.5 C-18.24850422 21.97124331 -17.15253283 20.4631651 -16 19 C-15.34 19 -14.68 19 -14 19 C-13.78472656 18.30261719 -13.56945312 17.60523438 -13.34765625 16.88671875 C-11.65079297 13.25198843 -9.18980092 10.66347496 -6.4375 7.8125 C-2.81023115 4.20855319 -2.81023115 4.20855319 0 0 Z " fill="#EDEDED" transform="translate(280,225)"/>
<path d="M0 0 C1.65 0.33 3.3 0.66 5 1 C6.39425033 5.61451882 5.47829026 9.39880601 4.3125 13.9375 C4.13041992 14.68169189 3.94833984 15.42588379 3.76074219 16.19262695 C2.27578776 22.17001428 0.5654832 28.06854435 -1.265625 33.94921875 C-2.01907253 37.07923214 -2.13460393 39.79354214 -2 43 C-0.27716797 43.47179687 -0.27716797 43.47179687 1.48046875 43.953125 C15.57655022 47.83160556 15.57655022 47.83160556 22.375 50 C29.34467011 52.17802191 36.41276142 53.89221895 43.5 55.63671875 C49.47009237 57.10860288 55.42393004 58.640696 61.375 60.1875 C62.827854 60.56237549 62.827854 60.56237549 64.31005859 60.94482422 C68.06980272 61.92427559 71.75310353 62.9134735 75.421875 64.19921875 C78.85404573 65.26527178 81.52015948 64.6959681 85 64 C85.19335938 63.25234375 85.38671875 62.5046875 85.5859375 61.734375 C85.84632813 60.74953125 86.10671875 59.7646875 86.375 58.75 C86.75785156 57.28820312 86.75785156 57.28820312 87.1484375 55.796875 C87.89598509 53.34162697 88.77123817 51.24382595 90 49 C91.98 49.33 93.96 49.66 96 50 C96.47178121 57.23397853 95.06640388 64.4716347 90.9375 70.5625 C86.62680582 74.139459 83.52938895 74.51082994 78 74 C72.89796999 72.88098799 67.94409969 71.3763598 62.94726562 69.86376953 C57.65115977 68.31161392 52.30990191 66.92670741 46.97351074 65.52059937 C35.93298496 62.6081801 24.90825378 59.64204072 13.91992188 56.53808594 C11.95433199 55.98720088 9.98544337 55.44961292 8.015625 54.9140625 C6.77296875 54.57117188 5.5303125 54.22828125 4.25 53.875 C3.18265625 53.58367187 2.1153125 53.29234375 1.015625 52.9921875 C-3.00548898 51.66917849 -6.70746158 50.16328458 -9.875 47.3125 C-12.67071351 41.56575556 -10.71636188 34.75831703 -9.1015625 28.88671875 C-8.80903091 27.78237236 -8.80903091 27.78237236 -8.5105896 26.65571594 C-8.10000097 25.11418171 -7.68462647 23.5739148 -7.26464844 22.03491211 C-6.62276906 19.67931279 -5.99779797 17.31969225 -5.375 14.95898438 C-4.97233697 13.45546562 -4.56872462 11.9522007 -4.1640625 10.44921875 C-3.88425034 9.39452644 -3.88425034 9.39452644 -3.5987854 8.31852722 C-2.71621746 5.10927677 -1.8657386 2.79860791 0 0 Z " fill="#B4B4B4" transform="translate(200,231)"/>
<path d="M0 0 C0.91007813 0.00902344 1.82015625 0.01804688 2.7578125 0.02734375 C3.45648438 0.03894531 4.15515625 0.05054688 4.875 0.0625 C4.875 0.7225 4.875 1.3825 4.875 2.0625 C5.865 2.3925 6.855 2.7225 7.875 3.0625 C10.32501107 7.22751882 9.90057407 10.4474167 8.875 15.0625 C6.79040482 18.18939277 6.2953866 18.89236774 2.875 20.0625 C-2.28955696 20.63633966 -2.28955696 20.63633966 -5.125 20.0625 C-8.0625 17.625 -8.0625 17.625 -10.125 15.0625 C-10.455 14.7325 -10.785 14.4025 -11.125 14.0625 C-11.71468059 6.98633292 -11.71468059 6.98633292 -9.25 3.125 C-6.06073511 0.02953702 -4.33506709 -0.05557778 0 0 Z " fill="#B2B2B2" transform="translate(237.125,205.9375)"/>
<path d="M0 0 C28.05 0 56.1 0 85 0 C85.495 1.485 85.495 1.485 86 3 C57.62 3 29.24 3 0 3 C0 2.01 0 1.02 0 0 Z " fill="#E5E5E5" transform="translate(220,197)"/>
<path d="M0 0 C0.33 1.32 0.66 2.64 1 4 C-1.375 6.625 -1.375 6.625 -4 9 C-4.33 9.66 -4.66 10.32 -5 11 C-5.99 10.67 -6.98 10.34 -8 10 C-5.36 6.7 -2.72 3.4 0 0 Z " fill="#B8B8B8" transform="translate(267,228)"/>
<path d="M0 0 C1.98 0.495 1.98 0.495 4 1 C4 2.32 4 3.64 4 5 C2.35 5 0.7 5 -1 5 C-0.67 3.35 -0.34 1.7 0 0 Z " fill="#E7E7E7" transform="translate(235,213)"/>
</svg>
