<svg width="12" height="12" viewBox="0 0 12 12" fill="none" xmlns="http://www.w3.org/2000/svg">
<path d="M5.75142 9.84916C5.82007 9.91781 5.91004 9.95215 6 9.95215C6.08995 9.95215 6.17995 9.91784 6.24857 9.84916L9.07279 7.02495C9.17334 6.9244 9.20341 6.77318 9.14901 6.64181C9.09459 6.51045 8.96641 6.42478 8.82421 6.42478H7.76367V3.17578C7.76367 2.98162 7.60626 2.82422 7.41211 2.82422H4.58789C4.39373 2.82422 4.23632 2.98162 4.23632 3.17578V6.4248H3.17578C3.03358 6.4248 2.90538 6.51047 2.85098 6.64184C2.79658 6.7732 2.82665 6.92442 2.9272 7.02497L5.75142 9.84916Z" fill="#0D0D12"/>
<path d="M9.07281 8.57564C8.93553 8.43834 8.71293 8.43834 8.57563 8.57564L6.00001 11.1513L3.42437 8.57564C3.2871 8.43834 3.06449 8.43834 2.92719 8.57564C2.78989 8.71294 2.78989 8.93552 2.92719 9.07282L5.75141 11.897C5.82006 11.9657 5.91004 12 6.00001 12C6.08999 12 6.17996 11.9657 6.24859 11.897L9.07281 9.0728C9.21013 8.93552 9.21013 8.71291 9.07281 8.57564Z" fill="#0D0D12"/>
<path d="M4.58789 2.11523H7.41211C7.60627 2.11523 7.76367 1.95783 7.76367 1.76367C7.76367 1.56952 7.60627 1.41211 7.41211 1.41211H4.58789C4.39373 1.41211 4.23633 1.56952 4.23633 1.76367C4.23633 1.95783 4.39373 2.11523 4.58789 2.11523Z" fill="#0D0D12"/>
<path d="M4.58789 0.703125H7.41211C7.60627 0.703125 7.76367 0.545719 7.76367 0.351562C7.76367 0.157406 7.60627 0 7.41211 0H4.58789C4.39373 0 4.23633 0.157406 4.23633 0.351562C4.23633 0.545719 4.39373 0.703125 4.58789 0.703125Z" fill="#0D0D12"/>
</svg>
